<svg width="577" height="48" viewBox="0 0 577 48" fill="none" xmlns="http://www.w3.org/2000/svg">
<rect width="577" height="48" rx="24" fill="#F0F0F0"/>
<path d="M37.7959 32.2041L33.3437 27.75C34.6787 26.0104 35.3019 23.8282 35.087 21.6461C34.8722 19.4639 33.8353 17.4452 32.1867 15.9994C30.5382 14.5536 28.4014 13.789 26.2098 13.8607C24.0183 13.9324 21.9361 14.8351 20.3856 16.3856C18.8351 17.9361 17.9324 20.0183 17.8607 22.2098C17.789 24.4014 18.5536 26.5382 19.9994 28.1867C21.4452 29.8353 23.4639 30.8722 25.6461 31.087C27.8282 31.3019 30.0104 30.6787 31.75 29.3438L36.2059 33.8006C36.3106 33.9053 36.4348 33.9883 36.5715 34.0449C36.7083 34.1016 36.8548 34.1307 37.0028 34.1307C37.1508 34.1307 37.2973 34.1016 37.4341 34.0449C37.5708 33.9883 37.695 33.9053 37.7997 33.8006C37.9043 33.696 37.9873 33.5717 38.044 33.435C38.1006 33.2983 38.1298 33.1517 38.1298 33.0037C38.1298 32.8558 38.1006 32.7092 38.044 32.5725C37.9873 32.4358 37.9043 32.3115 37.7997 32.2069L37.7959 32.2041ZM20.125 22.5C20.125 21.2391 20.4989 20.0066 21.1994 18.9582C21.8999 17.9099 22.8955 17.0928 24.0604 16.6103C25.2253 16.1278 26.5071 16.0015 27.7437 16.2475C28.9803 16.4935 30.1162 17.1006 31.0078 17.9922C31.8994 18.8838 32.5065 20.0197 32.7525 21.2563C32.9985 22.4929 32.8722 23.7747 32.3897 24.9396C31.9072 26.1045 31.0901 27.1001 30.0418 27.8006C28.9934 28.5011 27.7608 28.875 26.5 28.875C24.8098 28.8733 23.1893 28.2011 21.9941 27.0059C20.7989 25.8107 20.1267 24.1902 20.125 22.5Z" fill="black" fill-opacity="0.4"/>
<path d="M52.704 20.52C52.704 18.6 54.24 17.336 56.544 17.336C58.608 17.336 59.968 18.488 60.144 20.408H58.976C58.848 19.112 57.968 18.376 56.528 18.376C54.912 18.376 53.856 19.208 53.856 20.504C53.856 21.512 54.448 22.152 55.648 22.456L57.616 22.936C59.408 23.368 60.336 24.392 60.336 25.944C60.336 27.928 58.8 29.192 56.432 29.192C54.208 29.192 52.704 28.024 52.56 26.152H53.744C53.808 27.352 54.864 28.136 56.432 28.136C58.112 28.136 59.184 27.32 59.184 26.008C59.184 24.984 58.608 24.312 57.376 24.024L55.44 23.544C53.648 23.112 52.704 22.088 52.704 20.52ZM65.4156 29.192C63.1436 29.192 61.6236 27.56 61.6236 25.128C61.6236 22.712 63.1276 21.048 65.3356 21.048C67.4316 21.048 68.8556 22.536 68.8556 24.728V25.272H62.6956C62.7756 27.16 63.7676 28.248 65.4316 28.248C66.6956 28.248 67.5116 27.704 67.7996 26.68H68.8556C68.4396 28.312 67.2396 29.192 65.4156 29.192ZM65.3356 21.992C63.8796 21.992 62.9196 22.952 62.7276 24.472H67.7516C67.7516 22.984 66.7916 21.992 65.3356 21.992ZM72.7666 29.192C71.1186 29.192 70.1426 28.264 70.1426 26.904C70.1426 25.48 71.2306 24.584 73.0386 24.44L75.5986 24.232V23.976C75.5986 22.456 74.6866 21.976 73.5506 21.976C72.2066 21.976 71.4066 22.584 71.4066 23.624H70.3986C70.3986 22.056 71.6786 21.048 73.5826 21.048C75.3746 21.048 76.6866 21.944 76.6866 23.992V29H75.7586L75.6146 27.64C75.1346 28.616 74.0786 29.192 72.7666 29.192ZM73.0226 28.296C74.6546 28.296 75.5986 27.16 75.5986 25.48V25.064L73.3106 25.24C71.8546 25.368 71.2626 26.008 71.2626 26.872C71.2626 27.816 71.9666 28.296 73.0226 28.296ZM82.95 21.16V22.152H82.342C80.918 22.152 80.006 23.112 80.006 24.584V29H78.902V21.256H79.942L80.022 22.456C80.326 21.624 81.142 21.08 82.23 21.08C82.47 21.08 82.678 21.096 82.95 21.16ZM83.5768 25.144C83.5768 22.712 85.0648 21.048 87.3208 21.048C89.1128 21.048 90.4248 22.088 90.7288 23.688H89.6248C89.3368 22.616 88.4088 22.024 87.3368 22.024C85.7688 22.024 84.6648 23.224 84.6648 25.128C84.6648 26.968 85.6888 28.2 87.2568 28.2C88.4088 28.2 89.3368 27.56 89.6408 26.568H90.7608C90.3928 28.152 89.0168 29.192 87.2568 29.192C85.0648 29.192 83.5768 27.576 83.5768 25.144ZM93.5373 28.984H92.4333V17.336H93.5373V22.6C94.0333 21.672 94.9773 21.048 96.2733 21.048C98.3053 21.048 99.2173 22.312 99.2173 24.264V29H98.1133V24.504C98.1133 22.696 97.2653 22.056 96.0653 22.056C94.4013 22.056 93.5373 23.288 93.5373 24.776V28.984ZM104.991 21.256H106.175V19.752C106.175 18.008 107.135 17.336 108.319 17.336C108.591 17.336 108.911 17.352 109.167 17.4V18.344H108.511C107.535 18.344 107.279 18.84 107.279 19.752V21.256H109.103V22.184H107.279V29H106.175V22.184H104.991V21.256ZM109.827 25.128C109.827 22.76 111.491 21.048 113.763 21.048C116.035 21.048 117.699 22.76 117.699 25.128C117.699 27.48 116.035 29.192 113.763 29.192C111.491 29.192 109.827 27.48 109.827 25.128ZM110.947 25.112C110.947 26.936 112.099 28.2 113.763 28.2C115.411 28.2 116.579 26.936 116.579 25.112C116.579 23.32 115.411 22.04 113.763 22.04C112.099 22.04 110.947 23.32 110.947 25.112ZM123.513 21.16V22.152H122.905C121.481 22.152 120.569 23.112 120.569 24.584V29H119.465V21.256H120.505L120.585 22.456C120.889 21.624 121.705 21.08 122.793 21.08C123.033 21.08 123.241 21.096 123.513 21.16ZM129.418 32.376V21.256H130.378L130.49 22.824C131.034 21.624 132.122 21.048 133.418 21.048C135.658 21.048 137.002 22.76 137.002 25.096C137.002 27.432 135.706 29.192 133.418 29.192C132.106 29.192 131.066 28.632 130.522 27.512V32.376H129.418ZM130.538 25.128C130.538 26.904 131.53 28.2 133.226 28.2C134.906 28.2 135.882 26.904 135.882 25.128C135.882 23.336 134.906 22.056 133.226 22.056C131.53 22.056 130.538 23.336 130.538 25.128ZM142.809 21.16V22.152H142.201C140.777 22.152 139.865 23.112 139.865 24.584V29H138.761V21.256H139.801L139.881 22.456C140.185 21.624 141.001 21.08 142.089 21.08C142.329 21.08 142.537 21.096 142.809 21.16ZM143.436 25.128C143.436 22.76 145.1 21.048 147.372 21.048C149.644 21.048 151.308 22.76 151.308 25.128C151.308 27.48 149.644 29.192 147.372 29.192C145.1 29.192 143.436 27.48 143.436 25.128ZM144.556 25.112C144.556 26.936 145.708 28.2 147.372 28.2C149.02 28.2 150.188 26.936 150.188 25.112C150.188 23.32 149.02 22.04 147.372 22.04C145.708 22.04 144.556 23.32 144.556 25.112ZM156.114 29.192C153.858 29.192 152.53 27.464 152.53 25.144C152.53 22.808 153.858 21.048 156.162 21.048C157.442 21.048 158.466 21.608 159.01 22.728V17.336H160.114V29H159.154L159.042 27.416C158.498 28.616 157.41 29.192 156.114 29.192ZM156.306 28.184C158.002 28.184 158.994 26.904 158.994 25.112C158.994 23.336 158.002 22.04 156.306 22.04C154.626 22.04 153.65 23.336 153.65 25.112C153.65 26.904 154.626 28.184 156.306 28.184ZM167.858 21.256H168.962V29H168.002L167.858 27.688C167.426 28.584 166.354 29.192 165.138 29.192C163.314 29.192 162.322 27.944 162.322 26.056V21.24H163.442V25.704C163.442 27.544 164.258 28.2 165.49 28.2C166.978 28.2 167.858 27.208 167.858 25.368V21.256ZM170.561 25.144C170.561 22.712 172.049 21.048 174.305 21.048C176.097 21.048 177.409 22.088 177.713 23.688H176.609C176.321 22.616 175.393 22.024 174.321 22.024C172.753 22.024 171.649 23.224 171.649 25.128C171.649 26.968 172.673 28.2 174.241 28.2C175.393 28.2 176.321 27.56 176.625 26.568H177.745C177.377 28.152 176.001 29.192 174.241 29.192C172.049 29.192 170.561 27.576 170.561 25.144ZM181.194 29H180.106V22.184H178.554V21.256H180.106V18.808H181.194V21.256H182.746V22.184H181.194V29ZM183.527 26.824H184.583C184.583 27.72 185.255 28.28 186.343 28.28C187.543 28.28 188.247 27.768 188.247 26.936C188.247 26.296 187.927 25.928 187.015 25.704L185.687 25.368C184.343 25.032 183.687 24.328 183.687 23.272C183.687 21.912 184.823 21.048 186.487 21.048C188.119 21.048 189.175 21.944 189.223 23.384H188.151C188.119 22.488 187.495 21.96 186.455 21.96C185.367 21.96 184.759 22.424 184.759 23.256C184.759 23.848 185.175 24.264 186.023 24.472L187.351 24.808C188.695 25.144 189.303 25.768 189.303 26.888C189.303 28.28 188.119 29.192 186.359 29.192C184.615 29.192 183.527 28.264 183.527 26.824ZM191.94 29.176C191.396 29.176 190.932 28.728 190.932 28.2C190.932 27.656 191.396 27.192 191.94 27.192C192.484 27.192 192.948 27.656 192.948 28.2C192.948 28.728 192.484 29.176 191.94 29.176ZM196.127 29.176C195.583 29.176 195.119 28.728 195.119 28.2C195.119 27.656 195.583 27.192 196.127 27.192C196.671 27.192 197.135 27.656 197.135 28.2C197.135 28.728 196.671 29.176 196.127 29.176ZM200.315 29.176C199.771 29.176 199.307 28.728 199.307 28.2C199.307 27.656 199.771 27.192 200.315 27.192C200.859 27.192 201.323 27.656 201.323 28.2C201.323 28.728 200.859 29.176 200.315 29.176Z" fill="black" fill-opacity="0.4"/>
</svg>
