<svg width="16" height="17" viewBox="0 0 16 17" fill="none" xmlns="http://www.w3.org/2000/svg">
<path d="M2.4694 9.96951L7.4694 4.96951C7.53908 4.89959 7.62187 4.84411 7.71304 4.80626C7.8042 4.76841 7.90194 4.74892 8.00065 4.74892C8.09936 4.74892 8.1971 4.7684 8.28827 4.80626C8.37943 4.84411 8.46222 4.89959 8.5319 4.96951L13.5319 9.96951C13.6728 10.1104 13.752 10.3015 13.752 10.5008C13.752 10.7 13.6728 10.8911 13.5319 11.032C13.391 11.1729 13.1999 11.2521 13.0007 11.2521C12.8014 11.2521 12.6103 11.1729 12.4694 11.032L8.00003 6.56264L3.53065 11.0326C3.38976 11.1735 3.19866 11.2527 2.9994 11.2527C2.80015 11.2527 2.60905 11.1735 2.46815 11.0326C2.32726 10.8917 2.2481 10.7006 2.2481 10.5014C2.2481 10.3021 2.32726 10.111 2.46815 9.97014L2.4694 9.96951Z" fill="black"/>
</svg>
